<svg xmlns="http://www.w3.org/2000/svg" width="20.536" height="20.536" viewBox="0 0 20.536 20.536">
  <path id="Icon_awesome-arrow-circle-right" data-name="Icon awesome-arrow-circle-right" d="M10.831.563A10.268,10.268,0,1,1,.563,10.831,10.266,10.266,0,0,1,10.831.563Zm-1.2,5.946,3.126,3H5.2a.991.991,0,0,0-.994.994v.662a.991.991,0,0,0,.994.994h7.56l-3.126,3a1,1,0,0,0-.017,1.42l.455.451a.99.99,0,0,0,1.4,0l5.494-5.49a.99.99,0,0,0,0-1.4l-5.494-5.5a.99.99,0,0,0-1.4,0l-.455.451a1,1,0,0,0,.017,1.424Z" transform="translate(-0.563 -0.563)" fill="#00a0d2"/>
</svg>
