<svg xmlns="http://www.w3.org/2000/svg" width="68" height="88.544" viewBox="0 0 68 88.544">
  <g id="Group_14503" data-name="Group 14503" transform="translate(-53.516 -54)">
    <g id="Group_1779" data-name="Group 1779" transform="translate(53.569 51.454)">
      <rect id="Rectangle_3350" data-name="Rectangle 3350" width="68" height="5" rx="2.5" transform="translate(-0.053 15.546)" fill="#fff"/>
      <rect id="Rectangle_3351" data-name="Rectangle 3351" width="68" height="5" rx="2.5" transform="translate(-0.053 2.546)" fill="#fff"/>
      <rect id="Rectangle_3353" data-name="Rectangle 3353" width="68" height="63" rx="4" transform="translate(-0.053 28.089)" fill="#fff"/>
      <path id="Icon_awesome-check" data-name="Icon awesome-check" d="M12.227,30.9.527,19.2a1.8,1.8,0,0,1,0-2.546L3.073,14.1a1.8,1.8,0,0,1,2.546,0L13.5,21.986,30.382,5.1a1.8,1.8,0,0,1,2.546,0L35.473,7.65a1.8,1.8,0,0,1,0,2.546l-20.7,20.7A1.8,1.8,0,0,1,12.227,30.9Z" transform="translate(16.947 42.089)" fill="#0d3353"/>
    </g>
  </g>
</svg>
