<?xml version="1.0" encoding="utf-8"?>
<!-- Generator: Adobe Illustrator 27.0.0, SVG Export Plug-In . SVG Version: 6.00 Build 0)  -->
<svg version="1.1" id="Layer_1" xmlns="http://www.w3.org/2000/svg" xmlns:xlink="http://www.w3.org/1999/xlink" x="0px" y="0px"
	 viewBox="0 0 813.9 269" style="enable-background:new 0 0 813.9 269;" xml:space="preserve">
<style type="text/css">
	.st0{fill:#0B3453;}
	.st1{fill:none;}
	.st2{fill:#037CAC;}
	.st3{fill:#046CB2;}
	.st4{fill:#039FD0;}
	.st5{fill:#0E4D5E;}
	.st6{fill:#AA7129;}
	.st7{fill:#FBB22B;}
	.st8{fill:#FFFFFF;}
</style>
<g>
	<g>
		<g>
			<g>
				<path class="st0" d="M246,152.5c-8.5,13.7-20.1,25.8-34.6,35c-3.8,2.4-7.7,4.6-11.7,6.5c32.4-20.6,42.3-63.4,22.4-96.1l1.4-0.3
					l38.2-8.1l-2.7-6.6c1.2,2.2,2.3,4.5,3.3,6.8c0,0,0,0,0,0C263.3,111.7,257.6,133.7,246,152.5z"/>
				<path class="st1" d="M91.6,132.8l-0.1-0.1c0,1.3,0,2.6,0,3.9c0-0.2,0-0.5,0-0.7"/>
				<path class="st2" d="M211.5,84.3c-1-1-2.1-1.9-3.2-2.8c-2.2-1.9-4.5-3.7-6.8-5.4c2.4,1.6,4.7,3.4,6.9,5.3
					C209.4,82.4,210.4,83.3,211.5,84.3z"/>
				<path class="st3" d="M232.9,218.4c-3.2,2.7-6.5,5.2-10.1,7.6l4.1,4.8l8.8,10.3l1.2,1.4l-5.6,0.1l-13.8,0.2l-46.8,1.3l0.1-0.6
					l6-35v0l1-5.5l4.3-24.7l14.6,17.1l0.3,0.3c1-0.5,1.9-1.1,2.8-1.7h0c4-1.9,7.9-4.1,11.7-6.5c14.5-9.2,26.1-21.3,34.6-35
					c11.6-18.8,17.3-40.8,16.3-62.8C282.2,134.2,270.2,186.9,232.9,218.4z"/>
				<path class="st4" d="M262.3,89.7l-38.8,7.9l-1.4,0.3l-25.2,5.3l11.3-21.7l0.1-0.1c-2.2-1.9-4.5-3.7-6.8-5.3c0,0-0.1,0-0.1,0
					c-20.8-15.2-46.4-22.4-72-20.8c-17.8,1.2-35.5,6.7-51.6,17c-4.3,2.7-8.3,5.7-12,8.8c8.6-15.5,21.1-29.2,37.1-39.4
					c27.8-17.6,60.4-21.3,89.7-12.8c12.3,3.5,23.9,9.2,34.4,16.9l6.5-12.5l2.6-5l2.9,6.9L262.3,89.7z"/>
				<path class="st1" d="M91.6,132.8l-0.1-0.1c0,1.3,0,2.6,0,3.9c0-0.2,0-0.5,0-0.7"/>
				<path class="st5" d="M124.1,75c-10.4,6.6-18.5,15.5-24,25.7l-0.8-2.8l-5.9-19.7L59,95.9c1.9-5.1,4.2-10,6.8-14.7
					c3.8-3.2,7.8-6.1,12-8.9c16.1-10.2,33.9-15.8,51.6-16.9c25.5-1.7,51.1,5.6,71.9,20.7C178.9,60.9,148.5,59.5,124.1,75z"/>
				<polygon class="st6" points="176.8,208.5 170.8,243.5 170.7,243.5 				"/>
				<path class="st7" d="M170.7,244.1c-39.3,3.1-78.9-15-101.5-50.6c-10.7-16.8-16.3-35.4-17.1-54c-0.4-7.7,0.1-15.4,1.4-22.9l0,0
					l-9.5-4l-3.1-1.3l-6.4-2.7l8.4-4.3l3.5-1.8L59,95.9l34.4-17.7l5.8,19.7l0.8,2.8l12.1,40.9l-20.6-8.8l-0.1-0.1c0,1.3,0,2.6,0,3.9
					c-0.4,19.8,4.6,39.9,15.4,58.1c0.6,0.9,1.1,1.8,1.7,2.7C123.6,221,145.9,236.8,170.7,244.1z"/>
			</g>
			<polygon class="st4" points="136.9,103.2 140,118.9 157.4,123.7 140,128.5 136.9,144.2 133.8,128.5 116.4,123.7 133.8,118.9 			
				"/>
			<polygon class="st3" points="190.3,103.2 193.4,118.9 210.7,123.7 193.4,128.4 190.3,144.1 187.2,128.4 169.8,123.7 187.2,118.9 
							"/>
			<polygon class="st7" points="163.6,136.6 166.6,152.3 184.1,157.1 166.6,161.9 163.6,177.6 160.5,161.9 143.1,157.1 160.5,152.3 
							"/>
			<path class="st6" d="M177.8,203l-1,5.5v0l-6,35l-0.1,0.6c-24.8-7.2-47.1-23.1-62.1-46.6c-0.6-0.9-1.1-1.8-1.7-2.7
				c-10.8-18.2-15.8-38.3-15.4-58.1c0.3,12.2,3.9,24.6,11,35.7c12,18.9,31.6,30.2,52.4,32.3c6.8,0.7,13.8,0.4,20.6-1L177.8,203z"/>
		</g>
	</g>
	<g>
		<g>
			<path class="st8" d="M378.7,185.4l14-65.7l-31.3,42.6h-8.7L340,119.7L326,185.4h-14l18.6-87.6h17.1l13.1,44.7l32.3-44.7h18
				l-18.6,87.6H378.7z"/>
			<path class="st8" d="M403.8,185.4l47.1-87.6h18.9l10.5,87.6h-14.7l-2.3-20.2h-33.4l-11,20.2H403.8z M436.7,152h25.3l-4.4-39.4
				L436.7,152z"/>
			<path class="st8" d="M560.6,120.6c-1.8-4.1-4.2-7-7.2-8.8c-3-1.8-6.7-2.7-11.1-2.7c-3.7,0-6.9,0.5-9.7,1.6
				c-2.8,1.1-5.2,2.6-7.3,4.5c-2.1,1.9-3.9,4.1-5.5,6.7c-1.6,2.6-3,5.4-4.2,8.5c-0.9,2.3-1.7,4.6-2.4,6.9c-0.7,2.3-1.2,4.6-1.6,6.7
				c-0.4,2.2-0.7,4.2-0.9,6.2c-0.2,2-0.3,3.7-0.3,5.3c0,3.3,0.3,6.1,1,8.5c0.7,2.4,1.7,4.3,3.2,5.8c1.5,1.5,3.5,2.6,5.9,3.3
				c2.4,0.7,5.4,1,8.9,1c3.2,0,6.2-0.4,9.1-1.2c2.9-0.8,5.9-1.9,8.9-3.4l3.6-16.7h-18.8l2.7-13.2h33.4l-8,38.2
				c-5,2.9-10.1,5.1-15.3,6.8s-10.8,2.5-16.9,2.5c-5.5,0-10.4-0.6-14.5-1.8c-4.1-1.2-7.5-3-10.3-5.6s-4.8-5.8-6.1-9.8
				c-1.4-4-2.1-8.7-2.1-14.3c0-4.5,0.5-9.3,1.5-14.4c1-5.1,2.6-10.2,4.7-15.3c1.8-4.1,3.9-7.9,6.3-11.6s5.3-6.9,8.6-9.6
				c3.4-2.8,7.3-5,11.7-6.6c4.5-1.6,9.6-2.4,15.4-2.4c7.6,0,13.9,1.4,18.8,4.1c4.9,2.7,8.8,6.9,11.7,12.5L560.6,120.6z"/>
			<path class="st8" d="M612.4,185.4h-38.1l2.5-11.9h11.8l13.6-63.8h-11.8l2.5-11.9H631l-2.5,11.9h-11.8l-13.6,63.8h11.8
				L612.4,185.4z"/>
			<path class="st8" d="M699.2,170.8c-2,2.4-4.2,4.6-6.6,6.6c-2.4,2-5,3.7-7.9,5.2c-2.9,1.5-6.1,2.6-9.6,3.4
				c-3.5,0.8-7.4,1.2-11.8,1.2c-10.5,0-18.3-2.7-23.5-8s-7.7-13.4-7.7-24c0-2.3,0.1-4.9,0.4-7.6c0.3-2.7,0.7-5.6,1.3-8.5
				c0.6-2.9,1.4-5.9,2.3-8.8c0.9-3,2.1-5.9,3.5-8.7c1.7-3.5,3.7-6.8,6.2-9.9s5.3-5.8,8.5-8.2s6.9-4.2,10.9-5.5c4.1-1.4,8.6-2,13.6-2
				c4.1,0,7.8,0.4,11,1.2c3.2,0.8,6.1,1.9,8.5,3.4c2.4,1.5,4.5,3.2,6.3,5.4c1.8,2.1,3.2,4.5,4.5,7l-12.9,7.7c-0.9-2-1.9-3.8-3-5.2
				c-1.1-1.4-2.4-2.6-3.9-3.6s-3.2-1.6-5.1-2.1c-1.9-0.4-4.1-0.7-6.6-0.7c-2.9,0-5.5,0.4-7.9,1.3c-2.4,0.9-4.6,2.1-6.6,3.6
				c-2,1.5-3.8,3.4-5.3,5.5c-1.6,2.1-2.9,4.4-4,6.9c-1.1,2.4-2,4.9-2.8,7.4c-0.8,2.5-1.5,5-2,7.4s-0.9,4.8-1.2,7.2
				c-0.3,2.3-0.4,4.6-0.4,6.6c0,3.3,0.4,6.1,1.2,8.5c0.8,2.4,1.9,4.4,3.3,6c1.4,1.6,3.1,2.7,5.1,3.4c2,0.7,4.2,1.1,6.6,1.1
				c2.8,0,5.3-0.3,7.7-0.8c2.3-0.5,4.5-1.3,6.5-2.3c2-1,3.9-2.3,5.7-3.9c1.8-1.6,3.6-3.4,5.3-5.4L699.2,170.8z"/>
			<path class="st8" d="M702.8,185.4l47.1-87.6h18.9l10.5,87.6h-14.7l-2.3-20.2h-33.4l-11,20.2H702.8z M735.6,152h25.3l-4.4-39.4
				L735.6,152z"/>
		</g>
	</g>
</g>
</svg>
