<svg xmlns="http://www.w3.org/2000/svg" width="36.235" height="29.496" viewBox="0 0 36.235 29.496">
  <path id="Path_26472" data-name="Path 26472" d="M30.673,3.256a14.7,14.7,0,0,0,4.362-1.662.271.271,0,0,1,.185-.058,7.62,7.62,0,0,1-3.15,4.039,14.618,14.618,0,0,0,4.166-1.131c-.058.092-.092.138-.127.185a14.792,14.792,0,0,1-3.439,3.554.315.315,0,0,0-.15.3,20.857,20.857,0,0,1-.058,2.55,21.747,21.747,0,0,1-.427,2.735,22.13,22.13,0,0,1-2.827,6.924,20.74,20.74,0,0,1-5.193,5.7,19.971,19.971,0,0,1-6.751,3.289,21.366,21.366,0,0,1-4.743.739c-.035,0-.092-.012-.115.035H11.99a.208.208,0,0,0-.138-.035h-.969a.208.208,0,0,0-.138.035h-.381a2.628,2.628,0,0,0-.669-.058c-.923-.1-1.846-.219-2.758-.4a21.724,21.724,0,0,1-6.52-2.6c-.138-.092-.277-.185-.415-.265a15.621,15.621,0,0,0,5.758-.485,14.77,14.77,0,0,0,5.147-2.608c-.288-.012-.577-.046-.854-.081A7.262,7.262,0,0,1,7.339,23a7.457,7.457,0,0,1-3.277-3.993c-.035-.1-.058-.173.1-.138a7.318,7.318,0,0,0,2.92-.081c.069-.023.138-.012.208-.081-.046-.012-.092-.023-.127-.035A7.37,7.37,0,0,1,3,16.02a7.206,7.206,0,0,1-1.581-4.535c0-.115.012-.162.138-.092a7.817,7.817,0,0,0,3,.865c.046,0,.115.023.127-.023s-.046-.069-.081-.1a7.775,7.775,0,0,1-1.1-.946A7.487,7.487,0,0,1,1.627,4.445a7.6,7.6,0,0,1,.762-2c.069-.127.1-.115.185-.012A19.892,19.892,0,0,0,5.158,5.068a21.117,21.117,0,0,0,7.9,4.247,22.775,22.775,0,0,0,3.173.658c.462.069.923.092,1.385.127.15.012.173-.012.15-.173a7.887,7.887,0,0,1-.138-.889,8.674,8.674,0,0,1,.138-2.181,7.461,7.461,0,0,1,5.943-5.782A3.388,3.388,0,0,0,24.383.96h1.269a3.689,3.689,0,0,0,.715.1,7.381,7.381,0,0,1,4.016,2.123.272.272,0,0,0,.288.069" transform="translate(0 -0.96)" fill="#0d3353"/>
</svg>
