<?xml version="1.0" encoding="utf-8"?>
<!-- Generator: Adobe Illustrator 19.0.0, SVG Export Plug-In . SVG Version: 6.00 Build 0)  -->
<svg version="1.1" id="Group_14735" xmlns="http://www.w3.org/2000/svg" xmlns:xlink="http://www.w3.org/1999/xlink" x="0px"
	 y="0px" viewBox="-9 51.3 91.5 91.7" style="enable-background:new -9 51.3 91.5 91.7;" xml:space="preserve">
<style type="text/css">
	.st0{clip-path:url(#SVGID_2_);}
	.st1{fill:#FFFFFF;}
	.st2{clip-path:url(#SVGID_4_);}
</style>
<g id="Group_14732">
	<g>
		<defs>
			<rect id="SVGID_1_" x="-9" y="51.3" width="91.5" height="91.7"/>
		</defs>
		<clipPath id="SVGID_2_">
			<use xlink:href="#SVGID_1_"  style="overflow:visible;"/>
		</clipPath>
		<g id="Group_14731" class="st0">
			<path id="Path_30128" class="st1" d="M66.8,104.5c-0.8,1.1-4.5,6.7-6.1,6c-0.9-0.4-0.8-4.5-1-5.6c-0.3-2.5-0.5-5.5-3.1-6.7
				c0.1-1.6,1.5-2.8,3-2.7c0.2,0,0.5,0.1,0.7,0.1c2.5,1,5.4,1.1,7.9,0.1c0.9-0.4,1.9-0.6,2.9-0.7C70.4,98.5,68.9,101.7,66.8,104.5
				 M59.7,134.8c0.7,0.7,0.7,1.8,0,2.5c0,0,0,0,0,0l-2.5,2.5c-0.7,0.7-1.8,0.7-2.5,0l-10.2-10.1c-0.7-0.7-0.7-1.8,0-2.5c0,0,0,0,0,0
				l2.5-2.5c0.7-0.7,1.8-0.7,2.5,0L59.7,134.8z M31.1,122.3c-0.3,0.3-0.5,0.5-0.8,0.8c-0.7-0.1-1.4-0.3-2-0.4
				c-1-0.9-2.3-1.2-3.5-1.1c-0.8-0.3-1.7-0.6-2.5-1c-0.4-0.9-0.6-1.9-0.5-2.9l1.4-10.5c1.2,0.4,2.4,0.5,3.7,0.5
				c2.2-0.1,4.5,0.4,6.5,1.3c3.1,1.7,3.5,4.7,1.8,7.6C34.1,118.7,32.7,120.6,31.1,122.3 M29.1,129.7L29.1,129.7l-10.2,10.1
				c-0.7,0.7-1.8,0.7-2.5,0l-2.5-2.5c-0.3-0.3-0.5-0.8-0.5-1.3c0-0.5,0.2-0.9,0.5-1.2l0,0l0,0l10.2-10.1c0.3-0.3,0.8-0.5,1.2-0.5
				c0.5,0,0.9,0.2,1.3,0.5l2.5,2.5C29.8,127.9,29.8,129,29.1,129.7C29.1,129.7,29.1,129.7,29.1,129.7 M5.2,124.4
				c-2.3-2.3-4.1-4.9-5.5-7.9c-5.3-11.6-6.1-21-6.1-25.6c0-2.4,2.6-5.5,3.8-1.9c1.9,8.5,6,16.4,12,22.8c1.9,2.1,5.8,1.9,6.2-1.4
				l1.1-8.2c0.4-2.7,4.7-2.2,4.3,0.6l-2,14.4c-0.3,2.3,0.5,4.7,2.1,6.4l0,0l-8.4,8.3L5.2,124.4z M3.8,90c2.6-0.4,4.9,1.4,5.3,4
				c0,0.2,0,0.4,0,0.6c0.4,3.6,2.2,5.6,6,5c-0.6,0.7-0.9,1.5-1,2.4l-1.1,8.2c-0.1,0.9-1.2,0.3-1.6-0.1c-5.1-5.6-9.3-11.9-9.7-19.6
				C2.5,90.2,3.2,90.1,3.8,90 M59.2,75c-0.9,0.8-2.1,1.2-3.3,1.3c-1.3-0.1-2.5-1.2-3.8-1.4c-1.8-0.3-3.8,0.4-5.7,2.1
				c-1.4,1.2-3.9,4.7-6.1,3.4c-1.6-1-1.3-4.1-0.9-5.7c1.1-5.3-1.6-7.7-6.7-8.5c-1.9-0.3-3.7-0.6-4.6-1.8c-0.9-1-1-2.8-0.4-5.2
				c0.4-1.5,0.9-2.9,1.5-4.3c15-3.3,30.3,3.5,38,16.8C64.4,72.4,61.7,73.5,59.2,75 M81.7,87.3c-1.5-2.8-5.3-3.8-7.4-0.9
				c-1.2-15.6-11.7-28.9-26.7-33.5c-10.2-3.1-24.9-2-33.1,5.7C14,59.2,14,60,14.5,60.6c0.5,0.5,1.2,0.6,1.8,0.2
				c3-2.1,6.2-3.8,9.7-4.9c-0.3,0.9-0.6,1.8-0.8,2.8c-0.8,3.3-0.5,5.8,1,7.6c1.6,1.9,4.1,2.3,6.2,2.7c3.5,0.6,5.2,1.7,4.5,5.3
				c-0.6,3-0.6,7.3,2.6,8.7c3.7,1.6,6.5-1.8,8.9-4c0.7-0.6,2.1-1.7,3.4-1.5c1.4,0.2,2.5,1.2,3.9,1.4c1.7,0,3.3-0.5,4.7-1.5
				c2.5-1.5,5.3-2.6,8.2-3.2c2.7,5.7,3.7,11.9,3.1,18.2c-1.4,0.1-2.8,0.4-4.1,0.9c-2,0.8-4.2,0.7-6.2-0.2c-2.9-0.9-6.1,0.7-7,3.6
				c-0.1,0.3-0.2,0.7-0.2,1.1c-2.6,0.4-4.5,2.8-4.2,5.4c0.4,4,1.1,8,1.7,12c0.3,2,0.6,3.8-0.2,5.3c-0.8,0.4-1.6,0.7-2.5,1
				c-1.3-0.2-2.5,0.2-3.5,1.1c-3.8,0.9-7.7,1.3-11.7,0.9c1.5-1.7,2.9-3.6,4-5.6c2.4-4.2,1.6-8.9-2.9-11.3c-3.4-1.8-7.9-1.2-11.1-2.2
				l0.2-1.2c0.3-2.4-1.2-4.6-3.5-5.3c-0.4-2-3.8-1.4-5.1-1.2c-2.4,0.4-3.1,0-3.4-2.5c-0.5-5.2-5-7.9-10.1-6.7
				c0.3-7.9,3.3-15.4,8.5-21.4c0.5-0.6,0.4-1.4-0.2-1.9c-0.5-0.5-1.4-0.4-1.8,0.1c-5.4,6.1-8.6,13.9-9.1,22C-4.2,81.7-9,86.2-9,90.9
				c0,4.8,0.9,14.6,6.3,26.7c1.5,3.2,3.5,6.2,6,8.7l7.8,7.8c-0.9,1.7-0.6,3.8,0.8,5.2l2.5,2.5c0.8,0.8,2,1.3,3.2,1.3
				c1.2,0,2.3-0.5,3.1-1.3L31,131.6c1.5-1.5,1.7-3.8,0.5-5.6c3.5,0.5,7,0.5,10.4,0c-1.2,1.8-0.9,4.1,0.5,5.6l10.2,10.1
				c1.8,1.7,4.5,1.7,6.3,0l2.5-2.5c1.3-1.4,1.7-3.4,0.8-5.1c0.9-0.9,1.7-2,2.7-2.8c0.6-0.5,0.7-1.3,0.2-1.9s-1.3-0.7-1.9-0.2
				c-1,0.9-1.9,1.8-2.8,2.8l-8.4-8.3c2.4-2.5,2.3-5.6,1.8-8.8c-0.6-4-1.2-7.9-1.6-11.9c-0.2-1.2,0.6-2.3,1.8-2.5
				c1.2-0.2,2.3,0.6,2.5,1.8c0,0.2,0,0.3,0,0.5c0.3,2.6,0.6,5.1,1,7.7c0.4,2.7,3.5,3.5,5.6,1.9c6-4.6,9.8-13.5,11.8-20.5
				c0.4-1.3,0.5-4,2-4.6c3-1.1,2.5,5.4,2.5,6.4c-0.4,4.9-1.3,9.7-2.8,14.4c-1.6,5.1-3.8,11-7.8,15.4c-0.5,0.6-0.4,1.4,0.1,1.9
				c0.5,0.5,1.4,0.4,1.9-0.1c4.4-4.8,6.7-11,8.4-16.4c1.6-4.9,2.5-9.9,2.9-15C82.6,91.7,82.8,89.3,81.7,87.3"/>
		</g>
	</g>
</g>
<g id="Group_14734">
	<g>
		<defs>
			<rect id="SVGID_3_" x="-9" y="51.3" width="91.5" height="91.7"/>
		</defs>
		<clipPath id="SVGID_4_">
			<use xlink:href="#SVGID_3_"  style="overflow:visible;"/>
		</clipPath>
		<g id="Group_14733" class="st2">
			<path id="Path_30129" class="st1" d="M48,127.4c-0.7,0-1.3,0.7-1.3,1.4c0,0.7,0.6,1.2,1.3,1.3c0.7,0,1.3-0.7,1.3-1.4
				C49.3,127.9,48.7,127.4,48,127.4"/>
			<path id="Path_30130" class="st1" d="M25.5,127.4c-0.7,0-1.3,0.7-1.3,1.4c0,0.7,0.6,1.2,1.3,1.3c0.7,0,1.3-0.7,1.3-1.4
				C26.8,127.9,26.2,127.4,25.5,127.4"/>
		</g>
	</g>
</g>
</svg>
