<?xml version="1.0" encoding="utf-8"?>
<!-- Generator: Adobe Illustrator 19.0.0, SVG Export Plug-In . SVG Version: 6.00 Build 0)  -->
<svg version="1.1" id="Layer_1" xmlns="http://www.w3.org/2000/svg" xmlns:xlink="http://www.w3.org/1999/xlink" x="0px" y="0px"
	 viewBox="-10 52 90 90" style="enable-background:new -10 52 90 90;" xml:space="preserve">
<style type="text/css">
	.st0{clip-path:url(#SVGID_2_);}
	.st1{fill:#FFFFFF;}
	.st2{clip-path:url(#SVGID_4_);}
</style>
<g id="Group_14730" transform="translate(0.451 0.066)">
	<g id="Group_14727">
		<g>
			<defs>
				<rect id="SVGID_1_" x="-10.5" y="51.9" width="90" height="90"/>
			</defs>
			<clipPath id="SVGID_2_">
				<use xlink:href="#SVGID_1_"  style="overflow:visible;"/>
			</clipPath>
			<g id="Group_14726" class="st0">
				<path id="Path_30122" class="st1" d="M41.8,133.7c-0.5-1.1-0.9-2.2-1.3-3.3c-0.4-1.2-0.5-5.5-0.3-10.4c0-0.9,0.5-1.6,1.3-2
					c1.6-0.9,3.1,0.4,4.5,1.2c1.6,0.7,3.4,0.9,5.1,0.5c0.8-0.2,1.7-0.2,2.6-0.1C51.2,125.2,47.1,130.2,41.8,133.7 M24.4,138.8h-0.2
					c-3,0-6.1-0.5-9-1.3c1.6-1.2,3.1-2.6,4.5-4.1c3-3.3,3.1-7.7-0.5-10.7c-1.9-1.5-4.2-2.4-6.6-2.9c-2.6-0.3-3.5-1.5-3.5-3.9
					c-0.1-3.6-1.8-5.5-5.4-5.5c-2.2,0-2.7-0.6-2.5-2.7c0.5-4.7-2.9-8-7.7-7.9c1.4-5.5,4.2-10.5,8.3-14.5c5.1-5,11.7-8.2,18.8-9
					c-0.4,0.7-0.8,1.4-1.2,2.2c-2.7,5.5,0.1,8.8,5.2,10.8c0.7,0.3,3.1,1.4,3.1,2.9c0,2.1-1.6,4.2-1.8,6.4c-0.2,2.8,1.5,5,4.4,5
					c2.4,0,4.1-1.5,6-2.7c1.3-1,3.1-0.9,4.4,0.1c2.1,1.6,4.3,1.6,6.8,0.7c1.4-0.5,2.9-0.8,4.4-1v8.6c0,2.6,0.9,5.1,2.7,7.1
					c-0.1,0.2-0.1,0.4-0.2,0.6c-1.3-0.2-2.5-0.2-3.8,0.1c-1.2,0.3-2.4,0.2-3.5-0.2c-2.2-1.2-4.4-2.6-7-1.2c-1.6,0.8-2.6,2.4-2.6,4.2
					c-0.1,2.1-0.3,9,0.4,11.3c0.4,1.3,0.9,2.7,1.5,3.9C34.9,137.5,29.7,138.8,24.4,138.8 M21.8,79.6c0.6-1.2,1.3-2.4,2.1-3.5
					C36,76,45.6,82.6,52,92.4V98c-1.8,0.2-3.5,0.6-5.2,1.2c-1.4,0.9-3.1,0.7-4.4-0.3c-2.1-1.7-5.1-1.8-7.3-0.3
					c-1.2,0.8-2.4,1.6-3.7,2.2c-1.7,0.6-2.9-0.3-2.8-2.1c0.1-2.3,1.8-4.3,1.8-6.5c0-2.2-1.7-4.2-4.8-5.4
					C21.9,85.3,19.7,83.8,21.8,79.6 M41.9,136.7c0,0,0.1,0,0.1-0.1c7-4.2,12.2-10.7,14.8-18.4c5,3.3,11.7,2,15-3
					c1.2-1.8,1.8-3.9,1.8-6V76h4.5c1.2-0.3,1.6-0.9,1.1-2.1l-5.1-7.1c-0.4-0.6-1.3-0.7-1.8-0.3c-0.6,0.4-0.7,1.2-0.3,1.8l3.6,5h-3.3
					c-0.7,0-1.3,0.6-1.3,1.3v34.5c0,4.5-3.7,8.2-8.2,8.2c-4.5,0-8.2-3.7-8.2-8.2l0,0V74.7c0-0.7-0.6-1.3-1.3-1.3h-3.3l12.8-17.8
					l5.1,7.2c0.4,0.6,1.3,0.7,1.8,0.2c0.6-0.4,0.7-1.2,0.3-1.8l-6.2-8.6c-0.3-0.3-0.7-0.5-1.1-0.5l0,0c-0.4,0-0.8,0.2-1.1,0.5
					L46.5,73.9C46,75,46.3,75.7,47.5,76H52v11.6C40.8,72.2,19.2,68.9,3.9,80.1c-1.4,1-2.7,2.1-3.9,3.3c-11.6,11.5-13.3,29.8-4,43.3
					c0.4,0.6,1.3,0.7,1.8,0.2c0.5-0.4,0.7-1.1,0.3-1.7c-3.6-5.2-5.6-11.5-5.6-17.9c0-1.6,0.1-3.3,0.4-4.9c3.3-0.2,6,1.5,5.6,5
					c-0.4,3.6,1.3,5.6,5,5.7c2.3,0,2.8,0.7,2.9,3c0.1,3.7,1.9,5.8,5.5,6.4c2,0.4,3.9,1.2,5.5,2.3c2.5,2.1,2.2,4.8,0.2,7
					c-1.6,1.8-3.5,3.4-5.5,4.8c-3.5-1.5-6.8-3.5-9.6-6.2c-0.5-0.5-1.4-0.4-1.9,0.1c-0.4,0.5-0.4,1.3,0.1,1.8
					C12,142.6,28.7,144.4,41.9,136.7C41.9,136.7,41.9,136.7,41.9,136.7"/>
			</g>
		</g>
	</g>
	<g id="Group_14729">
		<g>
			<defs>
				<rect id="SVGID_3_" x="-10.5" y="51.9" width="90" height="90"/>
			</defs>
			<clipPath id="SVGID_4_">
				<use xlink:href="#SVGID_3_"  style="overflow:visible;"/>
			</clipPath>
			<g id="Group_14728" class="st2">
				<path id="Path_30123" class="st1" d="M62.8,111.5c-2,0-3.6-1.6-3.6-3.6c0-1.2,0.6-2.2,1.5-2.9c0.4-0.2,0.6-0.6,0.6-1.1V89.8h3
					v14.1c0,0.4,0.2,0.8,0.6,1.1c1.6,1.1,2,3.3,0.9,4.9C65.1,110.9,64,111.5,62.8,111.5 M61.4,77.8c0-0.8,0.7-1.5,1.5-1.5
					c0.8,0,1.5,0.7,1.5,1.5c0,0,0,0,0,0v9.4h-3V77.8z M67,103.3V77.8c0-5.3-8.2-5.3-8.2,0v25.6c-2.5,2.3-2.8,6.2-0.5,8.7
					c2.3,2.5,6.2,2.8,8.7,0.5s2.8-6.2,0.5-8.7C67.3,103.6,67.1,103.5,67,103.3"/>
				<path id="Path_30124" class="st1" d="M7.2,72.2c0,0.7,0.6,1.3,1.3,1.3c0.7,0,1.3-0.6,1.3-1.3c0-0.4,0.1-0.8,0.4-1.1
					c1.2-1.5,1.2-3.7,0-5.2c-0.6-0.6-0.6-1.5,0-2.1c0.6-0.7,0.9-1.7,0.9-2.6c0-0.7-0.6-1.3-1.3-1.3c-0.7,0-1.3,0.6-1.3,1.3
					c0,0.4-0.1,0.8-0.4,1.1c-1.2,1.5-1.2,3.7,0,5.2c0.6,0.6,0.6,1.5,0,2.1C7.5,70.3,7.1,71.2,7.2,72.2"/>
				<path id="Path_30125" class="st1" d="M37.4,72.2c0,0.7,0.6,1.3,1.3,1.3c0.7,0,1.3-0.6,1.3-1.3c0-0.4,0.1-0.8,0.4-1.1
					c1.2-1.5,1.2-3.7,0-5.2c-0.6-0.6-0.6-1.5,0-2.1c0.6-0.7,0.9-1.7,0.9-2.6c0-0.7-0.6-1.3-1.3-1.3s-1.3,0.6-1.3,1.3
					c0,0.4-0.1,0.8-0.4,1.1c-1.2,1.5-1.2,3.7,0,5.2c0.6,0.6,0.6,1.5,0,2.1C37.8,70.3,37.4,71.2,37.4,72.2"/>
				<path id="Path_30126" class="st1" d="M17.3,68.1c0,0.7,0.6,1.3,1.3,1.3c0.7,0,1.3-0.6,1.3-1.3c0-0.4,0.1-0.8,0.4-1.1
					c1.2-1.5,1.2-3.7,0-5.2c-0.6-0.6-0.6-1.5,0-2.1c0.6-0.7,0.9-1.7,0.9-2.6c0-0.7-0.6-1.3-1.3-1.3s-1.3,0.6-1.3,1.3
					c0,0.4-0.1,0.8-0.4,1.1c-0.6,0.7-0.9,1.7-0.9,2.6c0,1,0.3,1.9,0.9,2.6c0.6,0.6,0.6,1.5,0,2.1C17.6,66.2,17.2,67.1,17.3,68.1"/>
				<path id="Path_30127" class="st1" d="M27.4,68.1c0,0.7,0.6,1.3,1.3,1.3c0.7,0,1.3-0.6,1.3-1.3c0-0.4,0.1-0.8,0.4-1.1
					c1.2-1.5,1.2-3.7,0-5.2c-0.6-0.6-0.6-1.5,0-2.1c0.6-0.7,0.9-1.7,0.9-2.6c0-0.7-0.6-1.3-1.3-1.3s-1.3,0.6-1.3,1.3
					c0,0.4-0.1,0.8-0.4,1.1c-1.2,1.5-1.2,3.7,0,5.2c0.6,0.6,0.6,1.5,0,2.1C27.7,66.2,27.3,67.1,27.4,68.1"/>
			</g>
		</g>
	</g>
</g>
</svg>
