<svg xmlns="http://www.w3.org/2000/svg" width="68" height="88.544" viewBox="0 0 68 88.544">
  <g id="Group_14844" data-name="Group 14844" transform="translate(-503 -697.728)">
    <rect id="Rectangle_3370" data-name="Rectangle 3370" width="68" height="5" rx="2.5" transform="translate(503 710.728)" fill="#fff"/>
    <rect id="Rectangle_3369" data-name="Rectangle 3369" width="68" height="5" rx="2.5" transform="translate(503 697.728)" fill="#fff"/>
    <rect id="Rectangle_3371" data-name="Rectangle 3371" width="68" height="63" rx="4" transform="translate(503 723.272)" fill="#fff"/>
    <path id="Icon_awesome-pen" data-name="Icon awesome-pen" d="M20.443,6.556l9,9L9.9,35.1l-8.025.886A1.688,1.688,0,0,1,.01,34.125L.9,26.094,20.443,6.556Zm14.569-1.34L30.785.989a3.377,3.377,0,0,0-4.775,0L22.034,4.965l9,9,3.976-3.976a3.377,3.377,0,0,0,0-4.775Z" transform="translate(519.001 732.275)" fill="#0d3353"/>
  </g>
</svg>
