<svg xmlns="http://www.w3.org/2000/svg" width="68" height="88.272" viewBox="0 0 68 88.272">
  <g id="Group_14843" data-name="Group 14843" transform="translate(-214 -697.728)">
    <rect id="Rectangle_3366" data-name="Rectangle 3366" width="68" height="5" rx="2.5" transform="translate(214 710.728)" fill="#fff"/>
    <rect id="Rectangle_3367" data-name="Rectangle 3367" width="68" height="5" rx="2.5" transform="translate(214 697.728)" fill="#fff"/>
    <rect id="Rectangle_3368" data-name="Rectangle 3368" width="68" height="63" rx="4" transform="translate(214 723)" fill="#fff"/>
    <path id="Icon_ionic-ios-settings" data-name="Icon ionic-ios-settings" d="M36.595,21.991a4.5,4.5,0,0,1,2.888-4.2,17.843,17.843,0,0,0-2.159-5.2,4.562,4.562,0,0,1-1.831.392,4.492,4.492,0,0,1-4.109-6.322A17.789,17.789,0,0,0,26.191,4.5a4.5,4.5,0,0,1-8.4,0,17.843,17.843,0,0,0-5.2,2.159,4.492,4.492,0,0,1-4.109,6.322A4.413,4.413,0,0,1,6.65,12.59,18.238,18.238,0,0,0,4.5,17.8a4.5,4.5,0,0,1,.009,8.4,17.843,17.843,0,0,0,2.159,5.2A4.493,4.493,0,0,1,12.6,37.333a17.948,17.948,0,0,0,5.2,2.159,4.49,4.49,0,0,1,8.381,0,17.843,17.843,0,0,0,5.2-2.159A4.5,4.5,0,0,1,37.314,31.4a17.947,17.947,0,0,0,2.159-5.2A4.523,4.523,0,0,1,36.595,21.991ZM22.073,29.27a7.288,7.288,0,1,1,7.288-7.288A7.286,7.286,0,0,1,22.073,29.27Z" transform="translate(226.5 732.5)" fill="#0d3353"/>
  </g>
</svg>
